<?xml version="1.0" standalone="no"?>
<!DOCTYPE svg PUBLIC "-//W3C//DTD SVG 20010904//EN"
 "http://www.w3.org/TR/2001/REC-SVG-20010904/DTD/svg10.dtd">
<svg version="1.0" xmlns="http://www.w3.org/2000/svg"
 width="800.000000pt" height="800.000000pt" viewBox="0 0 800.000000 800.000000"
 preserveAspectRatio="xMidYMid meet">

<g transform="translate(0.000000,800.000000) scale(0.100000,-0.100000)"
fill="#000000" stroke="none">
<path d="M3859 7319 c-20 -4 -141 -54 -270 -110 -272 -118 -432 -187 -1039
-449 -515 -223 -534 -232 -551 -272 -23 -55 16 -93 152 -148 l57 -23 -6 -41
c-3 -22 -10 -43 -16 -45 -6 -2 -26 -19 -43 -37 -47 -46 -46 -93 3 -142 l36
-36 -21 -291 c-12 -159 -29 -387 -38 -505 -9 -118 -16 -260 -16 -315 0 -92 4
-110 45 -230 59 -171 67 -172 120 -15 56 166 59 196 42 420 -30 414 -45 631
-55 781 l-11 155 36 36 c49 49 50 96 4 142 -18 18 -38 35 -45 37 -11 4 -22 60
-13 69 3 2 103 -38 223 -90 l217 -94 0 -273 c0 -213 -3 -282 -15 -316 -8 -23
-23 -81 -34 -127 -120 -510 70 -1115 479 -1520 240 -238 499 -369 797 -401
393 -42 820 158 1117 525 334 411 473 940 365 1396 -11 46 -26 104 -34 127
-12 34 -15 103 -15 317 l0 272 312 135 c312 134 368 166 368 209 0 50 -54 81
-420 239 -195 84 -404 175 -465 201 -60 26 -193 84 -295 128 -102 44 -290 125
-418 181 -128 56 -252 106 -275 111 -51 12 -228 11 -278 -1z"/>
<path d="M2895 3453 c-11 -2 -64 -15 -117 -29 -598 -150 -1078 -579 -1303
-1164 -42 -107 -90 -306 -105 -430 -7 -52 -10 -147 -8 -210 3 -108 5 -120 37
-184 60 -123 232 -270 431 -371 332 -167 869 -303 1416 -359 490 -50 1172 -46
1604 9 942 122 1587 388 1753 725 29 59 32 74 35 180 8 260 -54 529 -182 796
-259 538 -740 910 -1334 1033 l-54 11 -91 -61 c-167 -112 -340 -185 -552 -235
-118 -28 -125 -29 -425 -29 -300 0 -307 1 -425 29 -212 50 -385 123 -552 235
-50 34 -95 60 -100 60 -4 -1 -17 -3 -28 -6z"/>
</g>
</svg>
