<?xml version="1.0" standalone="no"?>
<!DOCTYPE svg PUBLIC "-//W3C//DTD SVG 20010904//EN"
 "http://www.w3.org/TR/2001/REC-SVG-20010904/DTD/svg10.dtd">
<svg version="1.0" xmlns="http://www.w3.org/2000/svg"
 width="512.000000pt" height="512.000000pt" viewBox="0 0 512.000000 512.000000"
 preserveAspectRatio="xMidYMid meet">

<g transform="translate(0.000000,512.000000) scale(0.100000,-0.100000)"
fill="#000000" stroke="none">
<path d="M2436 4799 c-348 -38 -642 -234 -810 -540 -210 -383 -144 -885 158
-1198 236 -245 575 -366 893 -317 461 70 811 414 883 868 28 175 -5 419 -79
582 -68 149 -213 326 -346 422 -188 134 -469 208 -699 183z"/>
<path d="M955 2419 c-226 -33 -402 -188 -472 -414 -16 -55 -18 -104 -18 -595
0 -588 0 -587 62 -718 68 -145 221 -263 382 -298 53 -11 205 -14 774 -14 389
0 707 3 707 8 0 4 -232 464 -515 1022 l-514 1015 -173 1 c-95 1 -200 -2 -233
-7z"/>
<path d="M3714 2419 c-13 -15 -1004 -2024 -1004 -2033 0 -3 318 -6 708 -6 778
0 785 1 907 61 77 38 180 129 225 199 17 27 44 82 58 122 l27 73 0 545 0 545
-31 85 c-70 197 -223 344 -411 396 -81 23 -464 33 -479 13z"/>
<path d="M2299 2045 c-129 -114 -233 -212 -231 -218 7 -27 465 -987 471 -987
3 1 111 223 240 496 191 404 231 497 221 509 -17 21 -449 399 -459 403 -5 2
-114 -90 -242 -203z"/>
</g>
</svg>
