<?xml version="1.0" standalone="no"?>
<!DOCTYPE svg PUBLIC "-//W3C//DTD SVG 20010904//EN"
 "http://www.w3.org/TR/2001/REC-SVG-20010904/DTD/svg10.dtd">
<svg version="1.0" xmlns="http://www.w3.org/2000/svg"
 width="225.000000pt" height="225.000000pt" viewBox="0 0 225.000000 225.000000"
 preserveAspectRatio="xMidYMid meet">

<g transform="translate(0.000000,225.000000) scale(0.100000,-0.100000)"
fill="#000000" stroke="none">
<path d="M943 2145 c-689 -125 -1058 -881 -734 -1502 287 -548 988 -721 1506
-370 78 54 211 186 262 262 387 577 131 1349 -522 1572 -148 50 -359 66 -512
38z m55 -480 c55 -17 117 -63 127 -96 6 -18 9 -17 28 13 13 18 44 46 71 63 48
29 54 30 165 30 92 0 133 -5 198 -24 80 -23 81 -24 98 -67 l17 -44 64 0 64 0
0 -461 0 -461 -37 6 c-21 3 -149 13 -285 23 -233 16 -250 16 -283 0 -47 -23
-132 -22 -170 1 -29 18 -39 17 -300 -4 -148 -13 -280 -23 -292 -23 l-23 -1 0
455 0 455 64 0 64 0 17 49 16 49 77 20 c42 12 88 23 102 25 59 10 170 6 218
-8z"/>
<path d="M588 1520 c-16 -40 -18 -85 -17 -380 l0 -335 20 48 c18 45 19 70 17
380 -3 328 -3 331 -20 287z"/>
<path d="M1661 1230 c0 -321 1 -326 24 -375 l23 -50 1 325 c0 321 -1 326 -24
375 l-23 50 -1 -325z"/>
<path d="M480 1085 l0 -426 33 5 c17 3 138 13 268 22 220 16 240 16 278 1 52
-21 95 -21 155 -1 44 15 66 15 284 0 130 -9 249 -19 265 -21 l27 -4 0 424 0
425 -42 0 -41 0 21 -23 c22 -23 22 -27 22 -398 l0 -375 -57 3 c-32 2 -148 10
-258 17 -191 13 -201 13 -231 -5 -39 -24 -90 -24 -128 -1 -27 16 -43 16 -225
5 -108 -6 -226 -14 -263 -17 l-68 -5 0 381 c0 341 2 383 17 400 15 17 14 18
-20 18 l-37 0 0 -425z"/>
<path d="M845 903 c-121 -14 -193 -26 -201 -31 -5 -4 -22 -33 -37 -66 l-28
-58 43 5 c24 3 129 11 234 18 174 11 193 11 215 -4 38 -27 52 -22 35 12 -55
105 -129 140 -261 124z"/>
<path d="M1313 898 c-80 -13 -153 -73 -153 -124 0 -29 10 -30 40 -6 20 17 32
17 253 1 128 -9 233 -16 235 -14 2 1 -9 28 -24 58 -27 55 -27 55 -89 67 -94
18 -216 26 -262 18z"/>
</g>
</svg>
