<?xml version="1.0" standalone="no"?>
<!DOCTYPE svg PUBLIC "-//W3C//DTD SVG 20010904//EN"
 "http://www.w3.org/TR/2001/REC-SVG-20010904/DTD/svg10.dtd">
<svg version="1.0" xmlns="http://www.w3.org/2000/svg"
 width="128.000000pt" height="128.000000pt" viewBox="0 0 128.000000 128.000000"
 preserveAspectRatio="xMidYMid meet">

<g transform="translate(0.000000,128.000000) scale(0.100000,-0.100000)"
fill="#000000" stroke="none">
<path d="M425 1170 c-165 -58 -190 -70 -193 -90 -2 -12 0 -26 5 -31 5 -5 97
-40 206 -78 l196 -70 178 60 c97 32 178 59 180 59 1 0 4 -52 5 -116 2 -96 6
-119 20 -127 12 -8 21 -7 32 2 13 11 16 39 16 166 0 136 -2 154 -17 160 -68
28 -401 135 -418 134 -11 0 -105 -31 -210 -69z"/>
<path d="M12 1058 c-17 -17 -17 -839 0 -856 8 -8 65 -12 191 -12 l178 0 -3
-37 -3 -38 -70 -5 -70 -5 0 -30 0 -30 405 0 405 0 0 30 0 30 -70 5 -70 5 -3
38 -3 37 178 0 c126 0 183 4 191 12 17 17 17 839 0 856 -7 7 -36 12 -65 12
l-53 0 0 -135 c0 -147 -10 -190 -51 -219 -35 -24 -102 -21 -136 7 l-28 24
-135 -53 c-74 -29 -145 -53 -157 -54 -24 0 -276 94 -311 117 -32 20 -52 72
-52 136 l0 53 -50 21 c-42 18 -54 29 -68 62 l-17 41 -60 0 c-34 0 -66 -5 -73
-12z m352 -544 c12 -11 16 -36 16 -99 0 -110 -5 -115 -119 -115 -54 0 -91 4
-99 12 -8 8 -12 46 -12 105 0 111 1 112 117 113 61 0 86 -4 97 -16z m747 6
c21 -12 25 -40 7 -58 -9 -9 -95 -12 -324 -12 -271 0 -315 2 -328 16 -9 8 -16
19 -16 24 0 5 7 16 16 24 13 14 56 16 320 16 191 0 313 -4 325 -10z m0 -150
c21 -12 25 -40 7 -58 -9 -9 -96 -12 -330 -12 -303 0 -318 1 -328 19 -13 25
-13 27 6 45 13 14 56 16 320 16 191 0 313 -4 325 -10z"/>
<path d="M230 415 c0 -33 2 -35 35 -35 33 0 35 2 35 35 0 33 -2 35 -35 35 -33
0 -35 -2 -35 -35z"/>
<path d="M360 876 c0 -24 6 -48 13 -54 19 -16 244 -102 267 -102 23 0 248 86
267 102 14 11 18 88 5 88 -4 0 -62 -18 -127 -40 -65 -22 -130 -40 -143 -40
-14 0 -83 20 -153 45 l-129 44 0 -43z"/>
</g>
</svg>
